<?xml version="1.0" standalone="no"?>
<!DOCTYPE svg PUBLIC "-//W3C//DTD SVG 1.1//EN" "http://www.w3.org/Graphics/SVG/1.1/DTD/svg11.dtd" >
<svg>
<metadata>
Created by FontForge 20090622 at Sat Dec 16 20:48:14 2017
 By ffonts
</metadata>
<defs>
<font id="Tostada" horiz-adv-x="163" >
  <font-face 
    font-family="Tostada"
    font-weight="400"
    font-stretch="normal"
    units-per-em="1000"
    panose-1="0 0 0 0 0 0 0 0 0 0"
    ascent="750"
    descent="-250"
    x-height="525"
    cap-height="747"
    bbox="-58 -401 1125 1037"
    underline-thickness="50"
    underline-position="-50"
    unicode-range="U+000D-U+201D"
  />
<missing-glyph 
 />
    <glyph glyph-name=".notdef" 
 />
    <glyph glyph-name="NULL" horiz-adv-x="0" 
 />
    <glyph glyph-name="NULL" horiz-adv-x="0" 
 />
    <glyph glyph-name="nonmarkingreturn" unicode="&#xd;" 
 />
    <glyph glyph-name="space" unicode=" " 
 />
    <glyph glyph-name="E" unicode="E" horiz-adv-x="676" 
d="M272 389q30 -13 60 -32q25 -17 53 -43t48 -64v152v131q-18 -38 -45.5 -65.5t-53.5 -44.5q-30 -20 -62 -34zM350 749h207v-246q-23 47 -54 92q-26 38 -65 80t-88 74zM559 254v-255h-214q42 36 82 77q34 35 70.5 81t61.5 97zM176 1h-176v748h176v-748z" />
    <glyph glyph-name="F" unicode="F" horiz-adv-x="653" 
d="M271 390q25 -13 50 -32q21 -17 44.5 -42.5t41.5 -61.5v136v150q-19 -40 -42.5 -68.5t-44.5 -46.5q-25 -21 -49 -35zM333 750h213v-270q-24 56 -56 107q-28 44 -67 89.5t-90 73.5zM0 749v-749h176v749h-176z" />
    <glyph glyph-name="f" unicode="f" horiz-adv-x="577" 
d="M440 530q-15 -32 -47.5 -43t-63.5 3q-32 15 -43.5 47.5t3.5 64.5q11 23 10.5 41t-5.5 30q-5 14 -16 25q21 0 43 -5q19 -5 41.5 -15t44.5 -29q64 -56 33 -119zM0 490q0 30 7 54.5t19 44t27 35t31 27.5q37 27 84 42v-697h-168v494zM229 294q23 11 49 29q21 15 47 38.5
t49 58.5v-126v-126q-25 35 -50.5 59t-46.5 39q-25 18 -48 28z" />
    <glyph glyph-name="e" unicode="e" horiz-adv-x="684" 
d="M449 61q35 0 63 7q-41 -38 -95.5 -60.5t-117.5 -22.5q-62 0 -116.5 21.5t-95 59t-64 88t-23.5 107.5q0 55 20 103t54.5 84.5t81.5 59t100 25.5q-37 -42 -54 -94t-17 -117q0 -58 20.5 -106t56.5 -82.5t84 -53.5t103 -19zM398 249q3 16 5 32t2 33q0 67 -17 121.5t-54 97.5
q53 -3 100 -26.5t81.5 -61.5t54.5 -87.5t20 -106.5v-2h-192z" />
    <glyph glyph-name="d" unicode="d" horiz-adv-x="728" 
d="M261 5q-54 0 -101 19.5t-82 53t-55 78.5t-20 96t20 96t55 78.5t82 53t101 19.5h16q-18 -15 -33.5 -39.5t-26 -56.5t-16.5 -70.5t-6 -80.5t6 -80.5t16.5 -70.5t26 -56.5t33.5 -39.5h-16zM348 652q46 20 86 41.5t69 39.5q34 20 62 40v-773h-175v529q0 38 -6.5 62t-14.5 38
q-10 16 -21 23z" />
    <glyph glyph-name="c" unicode="c" horiz-adv-x="670" 
d="M449 66q35 0 63 7q-41 -38 -95.5 -60.5t-117.5 -22.5q-62 0 -116.5 21.5t-95 59t-64 88t-23.5 107.5q0 55 20 103t54.5 84.5t81.5 59t100 25.5q-37 -42 -54 -94t-17 -117q0 -58 20.5 -106t56.5 -82.5t84 -53.5t103 -19zM559 361q-7 -19 -20.5 -32t-30 -20t-34.5 -7t-36 7
t-31.5 20.5t-20 30t-7 35t6.5 36.5q11 26 9.5 45.5t-7.5 33.5q-7 15 -20 26q27 -2 53 -7q23 -5 48 -14t47 -25q14 -11 25.5 -25.5t18 -32t7 -35.5t-7.5 -36z" />
    <glyph glyph-name="b" unicode="b" horiz-adv-x="715" 
d="M309 497q55 0 103.5 -19.5t84.5 -52.5t57 -78t21 -96t-21 -95.5t-57 -78t-84.5 -53t-103.5 -19.5h-16q19 15 34.5 39.5t26.5 56.5t17.5 70t6.5 80t-6.5 80t-17.5 70t-26.5 56.5t-34.5 39.5h16zM-42 652q46 20 86 41.5t69 39.5q34 20 62 40v-773h-175v529q0 38 -6.5 62
t-14.5 38q-10 16 -21 23z" />
    <glyph glyph-name="a" unicode="a" horiz-adv-x="695" 
d="M60 371q-27 63 36 116q22 18 44.5 27.5t41.5 13.5q22 4 42 4q-11 -10 -17 -24q-5 -12 -6 -29.5t10 -40.5q7 -15 7.5 -31.5t-5.5 -31.5t-17 -27t-27 -19q-15 -7 -31.5 -7t-31.5 5.5t-27 16.5t-19 27zM190 2h77q-41 14 -67 50t-26 82t26 82t67 50h-88q-51 0 -85.5 -13
t-54.5 -32.5t-28.5 -42.5t-8.5 -44q0 -22 7.5 -45t27.5 -42.5t54.5 -32t87.5 -12.5h11zM389 524l-9 2v-230v-296h183v282q0 44 -14 84t-38 72t-55.5 54.5t-66.5 31.5z" />
    <glyph glyph-name="g" unicode="g" horiz-adv-x="798" 
d="M385 516q43 0 81.5 -17t67 -46t45 -68t16.5 -84t-16.5 -84t-45 -68.5t-67 -46.5t-81.5 -17h-31q15 13 27 34.5t21 49.5t14 61.5t5 70.5q0 36 -5 69.5t-14 61.5t-21 49.5t-27 34.5h31zM210 85q-44 0 -82 17t-66.5 46.5t-45 68.5t-16.5 84t16.5 84t45 68t66.5 46t82 17h35
q-29 -26 -47.5 -84t-18.5 -131q0 -74 18.5 -132t47.5 -84h-35zM425 -36q48 -11 87.5 -35t69 -57t47.5 -74.5t22 -87.5l-369 85q-48 11 -88 35t-69.5 57t-47.5 74t-22 88l369 -85h1zM74 -175q16 -33 37.5 -60.5t46 -49.5t50.5 -39t50 -30q57 -30 118 -47h-302v226zM678 656
q19 -30 10.5 -64t-37.5 -53q-31 -19 -65.5 -10.5t-53.5 38.5q-14 22 -29 31.5t-28 11.5q-15 3 -30 -1q11 18 28 34q14 14 35.5 28t50.5 22q82 22 119 -37z" />
    <glyph glyph-name="h" unicode="h" horiz-adv-x="685" 
d="M364 521q35 -9 66.5 -31.5t55.5 -54.5t38 -72t14 -84v-279h-183v293v230q2 -1 4.5 -1t4.5 -1zM-42 652q46 20 86 41.5t69 39.5q34 20 62 40v-773h-175v529q0 38 -6.5 62t-14.5 38q-10 16 -21 23z" />
    <glyph glyph-name="i" unicode="i" horiz-adv-x="347" 
d="M190 708q0 -20 -7.5 -37t-20.5 -30t-30.5 -20.5t-36.5 -7.5q-20 0 -37.5 7.5t-30 20.5t-20 30t-7.5 37q0 19 7.5 36.5t20 30.5t30 20.5t37.5 7.5q19 0 36.5 -7.5t30.5 -20.5t20.5 -30.5t7.5 -36.5zM-41 427q11 -7 21 -23q8 -14 14.5 -38t6.5 -62v-304h175v548
q-28 -20 -62 -40q-29 -18 -69 -39.5t-86 -41.5z" />
    <glyph glyph-name="j" unicode="j" horiz-adv-x="436" 
d="M222 616q-20 0 -37 7.5t-29.5 20.5t-20 30t-7.5 37t7.5 37.5t20 30t29.5 20t37 7.5q40 0 67.5 -27.5t27.5 -67.5q0 -20 -7.5 -37t-20 -30t-30 -20.5t-37.5 -7.5zM85 440q46 20 87 42l72 40l66 40v-560v-11q0 -44 -14 -84t-38 -72t-55.5 -54.5t-66.5 -31.5q-32 -8 -63 -10
t-56 -2q-29 0 -56 3q46 17 83 49q15 13 30 31t27 41.5t19 52t7 63.5v25v316q0 38 -6.5 61.5t-14.5 37.5q-10 16 -21 23z" />
    <glyph glyph-name="k" unicode="k" horiz-adv-x="718" 
d="M361 -5l-186 199v-196h-175v529q0 38 -6.5 62t-14.5 38q-10 16 -21 23q47 20 86.5 41.5t68.5 39.5q34 20 62 40v-521l80 93l317 -348h-211zM402 384q-17 19 -33 25.5t-29 7.5q-15 1 -28 -5q8 19 21 37q11 15 29 31.5t44 28.5q76 36 120 -17q23 -26 20.5 -59.5
t-28.5 -56.5t-59.5 -20.5t-56.5 28.5z" />
    <glyph glyph-name="l" unicode="l" horiz-adv-x="325" 
d="M-42 652q46 20 86 41.5t69 39.5q34 20 62 40v-773h-175v529q0 38 -6.5 62t-14.5 38q-10 16 -21 23z" />
    <glyph glyph-name="m" unicode="m" horiz-adv-x="1000" 
d="M0 462q38 5 71.5 15.5t59.5 21.5q29 12 54 27v-525h-185v461zM351 525q35 -9 66.5 -31.5t55.5 -54.5t38 -72t14 -84v-282h-183v296v230q2 -1 4.5 -1t4.5 -1zM692 525q35 -9 66.5 -31.5t55.5 -54.5t38 -72t14 -84v-282h-183v296v230q2 -1 4.5 -1t4.5 -1z" />
    <glyph glyph-name="n" unicode="n" horiz-adv-x="662" 
d="M0 462q38 5 71.5 15.5t59.5 21.5q29 12 54 27v-525h-185v461zM352 525q35 -9 66.5 -31.5t55.5 -54.5t38 -72t14 -84v-282h-183v296v230q2 -1 4.5 -1t4.5 -1z" />
    <glyph glyph-name="o" unicode="o" horiz-adv-x="773" 
d="M392 525q51 0 96.5 -20.5t79.5 -56t53.5 -83.5t19.5 -103q0 -54 -19.5 -101.5t-53.5 -83t-79.5 -56t-96.5 -20.5h-16q18 16 32.5 42t25 60t16.5 74.5t6 84.5t-6 85t-16.5 75t-25 60.5t-32.5 42.5h16zM249 1q-51 0 -96.5 20.5t-79.5 56t-53.5 83t-19.5 101.5
q0 55 19.5 103t53.5 83.5t79.5 56t96.5 20.5h16q-18 -16 -32.5 -42.5t-25 -60.5t-16.5 -75t-6 -85t6 -84.5t16.5 -74.5t25 -60t32.5 -42h-16z" />
    <glyph glyph-name="p" unicode="p" horiz-adv-x="722" 
d="M330 530q54 0 102 -20.5t84 -56.5t57 -84t21 -103t-21 -103t-57 -84t-84 -56.5t-102 -20.5h-17q38 32 61 102.5t23 161.5q0 90 -23 161t-61 103h17zM-41 427q46 20 86 41.5t69 39.5q34 20 62 40v-790h-175v546q0 38 -6.5 62t-14.5 38q-10 16 -21 23z" />
    <glyph glyph-name="q" unicode="q" horiz-adv-x="758" 
d="M264 530h16q-37 -32 -60.5 -103t-23.5 -161q0 -91 23.5 -161.5t60.5 -102.5h-16q-55 0 -103 20.5t-84 56.5t-56.5 84t-20.5 103t20.5 103t56.5 84t84 56.5t103 20.5zM424 502h170v-729h-170v729z" />
    <glyph glyph-name="r" unicode="r" horiz-adv-x="534" 
d="M440 517q28 -23 31 -57.5t-19 -61.5q-23 -28 -58 -31t-63 20q-20 17 -38 21t-32 2q-17 -2 -30 -10q7 21 18 41q10 17 26 37t41 37q71 47 124 2zM0 455q31 8 62.5 22.5t56.5 30t40.5 28t15.5 17.5v-550h-175v452z" />
    <glyph glyph-name="s" unicode="s" horiz-adv-x="587" 
d="M301 347q46 -19 82 -48.5t60 -67t35.5 -81.5t8.5 -90l-301 121v1q-45 18 -81 48t-60.5 67.5t-36 81t-7.5 90.5zM472 323q-30 54 -73 92t-84 63q-48 29 -98 49h255v-204zM0 215q29 -54 71.5 -94t82.5 -67q47 -32 96 -53h-250v214z" />
    <glyph glyph-name="t" unicode="t" horiz-adv-x="523" 
d="M371 536v-217h-4l-22.5 33.5t-41 53.5t-62 63t-85.5 62v5h215zM-58 571q38 20 78 46q34 23 75 55.5t81 74.5v-333v-164q0 -35 9.5 -63.5t25.5 -52t36 -41.5t41 -31q49 -32 112 -49q-40 -7 -80 -11q-35 -3 -75.5 -2t-76.5 10q-35 9 -65.5 33t-53 58.5t-35.5 76.5t-13 86
v159q0 51 -9.5 80t-20.5 44q-13 18 -29 24z" />
    <glyph glyph-name="u" unicode="u" horiz-adv-x="671" 
d="M527 0h-178v527h178v-527zM174 20q-35 9 -66.5 31.5t-55.5 54.5t-38 72t-14 84v266h183v-280v-230q-3 0 -9 2z" />
    <glyph glyph-name="v" unicode="v" horiz-adv-x="701" 
d="M482 607q67 -21 66 -107q-1 -30 -8.5 -54t-17.5 -41q-11 -20 -26 -35q0 15 -7 29q-6 12 -19 24t-38 20q-34 11 -50.5 42t-6.5 65q11 34 42 50.5t65 6.5zM194 528h-192l284 -527l97 160z" />
    <glyph glyph-name="w" unicode="w" horiz-adv-x="1060" 
d="M810 355q-14 32 -33 63q-17 26 -42 55.5t-59 52.5h134h121q-26 -32 -47.5 -63l-38.5 -55zM387 171l-117 -171l-270 527h199zM721 171l-117 -171l-270 527h199z" />
    <glyph glyph-name="x" unicode="x" horiz-adv-x="732" 
d="M563 511q13 -10 21 -24t10.5 -30t-1.5 -32t-14 -29q-21 -28 -54.5 -32.5t-61.5 16.5q-20 15 -36.5 18t-29.5 1q-15 -3 -27 -11q4 20 13 40q8 17 22 37.5t37 37.5q68 50 121 8zM603 4h-193l-406 527h194zM163 176q0 -34 8 -67q7 -28 22.5 -58.5t46.5 -50.5h-140h-104
l49 51l55 58z" />
    <glyph glyph-name="y" unicode="y" horiz-adv-x="724" 
d="M14 -116q-6 16 -6 32.5t6 31t17.5 26t26.5 17.5q32 13 63 0t44 -44q10 -23 23 -34.5t25 -16.5q14 -5 29 -4q-14 -16 -32 -28q-16 -11 -38 -21t-50 -13q-83 -7 -108 54zM493 319q-11 42 -29 82q-15 34 -39.5 69t-59.5 58h151h121l-47 -67l-47 -68zM415 163l-104 -162
l-312 527h201z" />
    <glyph glyph-name="z" unicode="z" horiz-adv-x="707" 
d="M31 300v226h204q-38 -30 -75 -66q-32 -31 -67 -71.5t-62 -88.5zM555 225v-225h-204q38 29 75 65q32 30 66.5 71t62.5 89zM387 526h193l-387 -526h-193z" />
    <glyph glyph-name="D" unicode="D" horiz-adv-x="798" 
d="M373 747q60 0 115 -29t97 -80t67 -119t25 -146q0 -77 -25 -145t-67 -118.5t-97 -79.5t-115 -29h-1q20 22 38.5 59t32.5 85.5t22.5 106.5t8.5 121q0 64 -8.5 122t-22.5 106.5t-32.5 85.5t-38.5 60h1zM176 749v-749h-176v749h176z" />
    <glyph glyph-name="ydieresis" unicode="&#xff;" horiz-adv-x="733" 
 />
    <glyph glyph-name="G" unicode="G" horiz-adv-x="798" 
d="M499 2v342h169v-250q-44 -13 -75.5 -29t-52.5 -30q-25 -17 -41 -33zM440 750h205v-243q-24 49 -55 95q-27 39 -64.5 80.5t-85.5 67.5zM308 5h2q-20 22 -37 59t-29 85.5t-19 106.5t-7 121q0 64 7 122t19 106.5t29 85.5t37 59q-60 0 -115 -29.5t-97.5 -80t-68 -118.5
t-25.5 -145t25 -144.5t67 -118t97 -80t115 -29.5z" />
    <glyph glyph-name="H" unicode="H" horiz-adv-x="869" 
d="M283 401q0 35 24.5 59.5t58.5 24.5q35 0 59.5 -24.5t24.5 -59.5t-24.5 -59t-59.5 -24q-34 0 -58.5 24t-24.5 59zM174 749v-353v-134t0.5 -121t0.5 -93v-48h-175v558q0 38 -0.5 73t-0.5 61q-1 31 -1 57h176zM544 747l7.5 0.5t20.5 1t28.5 0.5h32.5h89q-1 -195 -1 -353
q0 -68 -0.5 -134t-0.5 -121v-93v-48h-175v550q0 38 -0.5 73.5t-0.5 63.5v60z" />
    <glyph glyph-name="I" unicode="I" horiz-adv-x="345" 
d="M177 -3h-178v750h178v-750v0z" />
    <glyph glyph-name="J" unicode="J" horiz-adv-x="705" 
d="M8 163q-28 -64 39 -119q23 -19 46.5 -27.5t43.5 -12.5q23 -4 44 -3q-12 10 -18 24q-5 12 -7 30t9 42q13 33 0 65.5t-46 46.5q-16 7 -33 6.5t-32 -6.5t-27 -18t-19 -28zM368 -3q-2 -1 -4.5 -1t-4.5 -1v230v525h183v-511q0 -44 -14 -84t-38 -72t-55.5 -54.5t-66.5 -31.5z
" />
    <glyph glyph-name="K" unicode="K" horiz-adv-x="778" 
d="M707 0h-198l-251 347l118 109zM174 747v-747h-174v747h174zM471 567q-6 33 -20 66q-13 28 -36 59t-64 56h145h169q-40 -33 -75 -65.5l-61 -58.5z" />
    <glyph glyph-name="L" unicode="L" horiz-adv-x="641" 
d="M174 0h-174v749h174v-749zM329 0h190v240q-26 -51 -56 -97q-26 -39 -60.5 -79.5t-73.5 -63.5z" />
    <glyph glyph-name="M" unicode="M" horiz-adv-x="1137" 
d="M978 -1h-181v750h181v-750zM124 749h219l259 -505l-94 -245zM167 209q-15 -38 -39 -75q-20 -32 -51.5 -68.5t-76.5 -66.5h167h166q-45 30 -76.5 66.5t-51.5 68.5q-24 37 -38 75z" />
    <glyph glyph-name="N" unicode="N" horiz-adv-x="988" 
d="M4 749h266l412 -461l3 -288zM105 242q18 -47 44 -91q23 -38 56 -79.5t78 -71.5h-178h-102q33 26 53 67t31 80q12 46 18 95zM674 563q-10 30 -29 63q-17 28 -45 61t-73 63h157h79q-28 -31 -45 -64t-27 -60q-11 -33 -17 -63z" />
    <glyph glyph-name="O" unicode="O" horiz-adv-x="879" 
d="M473 753q58 0 114.5 -29.5t101.5 -81t72.5 -120t27.5 -146.5q0 -77 -29 -145.5t-75 -119.5t-103.5 -81t-115.5 -30q19 22 40 60t38 87t28 107t11 122t-10 122.5t-25.5 107.5t-35.5 86.5t-39 60.5zM315 0q-58 0 -114.5 29.5t-101 81t-72 120t-27.5 146.5q0 77 29 145.5
t75 119.5t103.5 81t115.5 30q-20 -23 -40.5 -60.5t-37.5 -86.5t-28 -107t-11 -122t9.5 -122.5t25.5 -107.5t35 -87t39 -60z" />
    <glyph glyph-name="P" unicode="P" horiz-adv-x="736" 
d="M381 751q46 0 87 -18.5t71 -50.5t47.5 -75.5t17.5 -93.5q0 -52 -17.5 -96t-47.5 -75.5t-71.5 -49t-89.5 -17.5h-61q22 13 41 36.5t33 54.5t21.5 68.5t7.5 78.5q0 42 -7.5 79.5t-21.5 68t-33 54t-41 36.5h49h15zM174 749v-749h-174v749h174z" />
    <glyph glyph-name="Q" unicode="Q" horiz-adv-x="893" 
d="M715 -192q-4 -44 -37 -72.5t-78 -26.5q-22 2 -40.5 12t-31.5 26t-20 35.5t-5 41.5q2 32 -6.5 52.5t-19.5 32.5q-13 14 -31 22q25 10 53 14q24 4 56 2t67 -15q99 -37 93 -124zM473 753q58 0 114.5 -29.5t101.5 -81t72.5 -120t27.5 -146.5q0 -77 -29 -145.5t-75 -119.5
t-103.5 -81t-115.5 -30q19 22 40 60t38 87t28 107t11 122t-10 122.5t-25.5 107.5t-35.5 86.5t-39 60.5zM315 0q-58 0 -114.5 29.5t-101 81t-72 120t-27.5 146.5q0 77 29 145.5t75 119.5t103.5 81t115.5 30q-20 -23 -40.5 -60.5t-37.5 -86.5t-28 -107t-11 -122t9.5 -122.5
t25.5 -107.5t35 -87t39 -60z" />
    <glyph glyph-name="R" unicode="R" horiz-adv-x="811" 
d="M631 167q0 -58 25.5 -103.5t67.5 -64.5h-90q-59 0 -99 16t-64 40.5t-34 54.5t-10 57q0 57 -26 102t-66 64h-1q25 11 46 31.5t36 47.5t23.5 60t8.5 69q0 72 -31.5 127.5t-82.5 78.5h91q56 0 96.5 -19.5t66.5 -50t38 -67t12 -69.5t-9.5 -69.5t-29 -67.5t-48.5 -51t-67 -20
h32q27 0 48.5 -15.5t36 -40t22.5 -54t8 -56.5zM174 747v-747h-174v747h174z" />
    <glyph glyph-name="S" unicode="S" horiz-adv-x="680" 
d="M581 571q-7 -18 -20.5 -31t-30 -19.5t-35 -7t-36.5 6.5t-31 20.5t-20 30.5t-7.5 35.5t7.5 36.5q11 26 9.5 45.5t-7.5 33.5q-7 15 -20 26q23 1 48 -3q21 -4 47 -13.5t52 -29.5q74 -59 44 -131zM372 438q50 -21 90 -53.5t66.5 -74t39.5 -89.5t9 -99l-331 134v1
q-50 20 -96 55t-80 79t-53 94.5t-15 101.5zM0 229q21 -34 45 -61.5t50 -50t52 -39.5t50 -30q56 -30 115 -46h-312v227z" />
    <glyph glyph-name="T" unicode="T" horiz-adv-x="893" 
d="M463 0h-175v747h175v-747zM755 500q-31 60 -64 106t-61 78q-33 37 -65 63h190v-247zM188 749q-45 -27 -79.5 -69.5t-58.5 -82.5q-28 -47 -50 -97v249h188z" />
    <glyph glyph-name="U" unicode="U" horiz-adv-x="821" 
d="M547 513q-14 45 -37 88q-20 37 -51 77.5t-76 70.5h166h105q-32 -29 -52.5 -69.5t-32.5 -77.5q-14 -43 -22 -89zM184 252q0 -37 9 -66.5t24 -52t34 -39.5t39 -29q47 -28 107 -39q-36 -11 -75 -17q-33 -5 -74 -6t-80 9q-41 10 -72 34.5t-52.5 58.5t-32.5 75.5t-11 85.5v481
h184v-495z" />
    <glyph glyph-name="V" unicode="V" horiz-adv-x="908" 
d="M482 213l-104 -211l-375 745h200zM602 543q-7 39 -26 77q-17 32 -48.5 67t-85.5 61h166h167q-45 -31 -77.5 -66.5t-53.5 -66.5q-26 -36 -42 -72z" />
    <glyph glyph-name="W" unicode="W" horiz-adv-x="1245" 
d="M877 225l-118 -224l-349 746h209zM465 225l-118 -224l-349 746h209zM991 539q-8 43 -29 83q-18 34 -50.5 69t-86.5 58h166l134 1q-29 -31 -53 -67.5t-42 -68.5q-21 -38 -39 -75z" />
    <glyph glyph-name="X" unicode="X" horiz-adv-x="914" 
d="M199 217q-1 -43 9 -83q8 -35 27.5 -71.5t57.5 -62.5h-172h-112l58 62.5l62 71.5zM751 1h-218l-532 746h218zM567 532q0 43 -10 83q-8 35 -27 71.5t-57 62.5h172h112l-58 -62.5l-62 -71.5z" />
    <glyph glyph-name="Y" unicode="Y" horiz-adv-x="912" 
d="M613 537q-7 43 -23 83q-14 34 -38 69.5t-63 58.5h133h167q-38 -32 -70.5 -68.5t-55.5 -68.5q-27 -37 -50 -74zM488 0h-194v300l-321 447h194l321 -447v-300z" />
    <glyph glyph-name="Z" unicode="Z" horiz-adv-x="860" 
d="M196 -1h-196l511 748h196zM277 747h-277v-313q29 64 70 123q17 25 39 51.5t48 51.5t56 47.5t64 39.5zM424 -1h273v288q-27 -56 -67 -109q-34 -45 -85 -94.5t-121 -84.5z" />
    <glyph glyph-name="ampersand" unicode="&#x26;" horiz-adv-x="883" 
d="M222 493q-14 28 -20 53.5t-6 48.5t4.5 43t11.5 37q16 40 45 72l403 -744q-49 -1 -95 12q-39 11 -80.5 37.5t-69.5 79.5l-26.5 50l-21.5 39l-20 36l-23 42l-30.5 55.5l-41.5 77.5q-33 -32 -50.5 -87t-17.5 -117q0 -39 8 -74t23 -64.5t35 -51.5t44 -34h-158q-32 0 -57.5 21
t-43 54t-27 72.5t-9.5 76.5q0 36 9.5 75t27 71.5t43 54t57.5 21.5h108zM441 457q35 17 56.5 56t21.5 89t-21.5 89t-56.5 56h115q24 0 45.5 -11.5t37 -31t25 -46t9.5 -56.5t-9.5 -56.5t-25 -46t-37 -31t-45.5 -11.5h-115zM693 414q65 -27 56 -112q-3 -30 -13.5 -53t-21.5 -39
q-13 -18 -29 -33q1 15 -4 30q-5 12 -17 25.5t-35 23.5q-17 7 -28.5 19t-18 27t-7 31.5t6.5 33.5q7 16 19 28t27 18.5t32 6.5t33 -6z" />
    <glyph glyph-name="asterisk" unicode="*" horiz-adv-x="469" 
d="M254 719q0 -11 -8.5 -32t-18.5 -41q-11 -24 -26 -51q-16 27 -27 51q-11 20 -19 41t-8 32q0 23 15.5 38.5t38.5 15.5q22 0 37.5 -15.5t15.5 -38.5zM147 380q0 11 8 32t19 41q11 24 27 51q15 -27 26 -51q10 -20 18.5 -41t8.5 -32q0 -22 -15.5 -37.5t-37.5 -15.5
q-23 0 -38.5 15.5t-15.5 37.5zM321 419q-10 5 -23.5 23l-26.5 37q-15 22 -31 48q32 0 58 -2q23 -2 44.5 -5t31.5 -8q20 -11 25.5 -32.5t-5.5 -40.5q-11 -20 -32 -25.5t-41 5.5zM80 681q10 -6 23.5 -23.5t26.5 -36.5q15 -22 31 -48q-31 0 -57 2q-23 2 -45 4.5t-32 8.5
q-20 11 -25.5 32t5.5 41t32.5 25.5t40.5 -5.5zM375 584q-10 -5 -32 -7.5t-45 -3.5q-26 -1 -57 -1q16 26 32 48q13 19 27 36t24 22q20 11 40.5 5t31.5 -26t5 -41t-26 -32zM26 515q10 5 32 8t45 4q26 1 58 1l-32 -48l-27.5 -36t-23.5 -22q-20 -11 -41 -5t-32 26t-5 40.5
t26 31.5z" />
    <glyph glyph-name="one" unicode="1" horiz-adv-x="316" 
d="M-42 652q46 20 86 41.5t69 39.5q34 20 62 40v-773h-175v529q0 38 -6.5 62t-14.5 38q-10 16 -21 23z" />
    <glyph glyph-name="two" unicode="2" horiz-adv-x="684" 
d="M9 571q-30 72 43 131q26 20 52 30t47 14q25 4 48 3q-13 -11 -20 -27q-6 -14 -7 -33.5t10 -45.5q7 -18 7 -36.5t-7 -35t-19.5 -30t-30.5 -20.5q-36 -15 -72 -0.5t-51 50.5zM222 19q27 -9 62 -13t71.5 -1t70.5 13t59 30q32 23 50 50.5t27 52.5q11 29 13 58
q-45 -27 -105.5 -33t-117.5 14q-27 9 -59.5 13t-67 -0.5t-68.5 -17.5t-63 -38q-33 -29 -51.5 -55.5t-28.5 -46.5q-11 -24 -14 -45q44 27 104.5 33t117.5 -14zM308 746h-13q15 -13 30 -33t26.5 -48.5t17.5 -65t2 -82.5q-5 -51 -27 -94.5t-48 -75.5q-30 -38 -67 -69h13
q45 0 96.5 12.5t96.5 41t76.5 74t34.5 111.5q3 52 -17.5 94.5t-54.5 72.5t-77.5 46t-88.5 16z" />
    <glyph glyph-name="three" unicode="3" horiz-adv-x="701" 
d="M21 585q-27 65 39 119q23 19 46.5 28t43.5 13q23 4 44 3q-12 -11 -18 -25q-5 -12 -6.5 -30t8.5 -42q7 -16 6.5 -33t-6.5 -32t-17.5 -27t-27.5 -19q-17 -7 -34 -6.5t-32 6.5t-27 17.5t-19 27.5zM8 160q7 16 19 28t27 18t32 6.5t34 -6.5q16 -7 27.5 -19.5t17.5 -27.5
t6.5 -32t-6.5 -33q-10 -24 -8.5 -42t6.5 -30q6 -14 18 -24q-21 -1 -44 3q-20 3 -43.5 12t-46.5 28q-66 54 -39 119zM406 415q38 0 69.5 -19.5t54.5 -50t36 -67t13 -70.5q0 -33 -10 -70t-35 -67.5t-67.5 -50.5t-107.5 -20h-75q24 12 44 32.5t35 47.5t23 59.5t8 68.5
q0 73 -31 128.5t-79 78.5q37 22 60 66.5t23 101.5t-23 102t-60 65h53q49 0 86 -13t61.5 -35.5t37 -53t12.5 -65.5t-10 -65.5t-28 -53t-44 -36t-59 -13.5h15h-2z" />
    <glyph glyph-name="four" unicode="4" horiz-adv-x="916" 
d="M752 245q0 -19 -7.5 -36t-20 -29.5t-29.5 -20t-36 -7.5q-20 0 -37 7.5t-29.5 20t-20 29.5t-7.5 36t7.5 36.5t20 30t29.5 20t37 7.5q19 0 36 -7.5t29.5 -20t20 -30t7.5 -36.5zM330 654q44 29 75.5 53t51.5 41q24 19 40 35v-780h-167v651zM188 537v-351h-187v211z" />
    <glyph glyph-name="five" unicode="5" horiz-adv-x="672" 
d="M557 748q-7 -38 -28.5 -69t-54.5 -53t-75.5 -34.5t-91.5 -12.5h-1h-261v169h512zM10 182q7 18 20.5 31t30 19.5t35 6.5t36.5 -7q18 -8 31 -21t20 -30t7 -35.5t-7 -36.5q-11 -26 -10 -45t7 -33q7 -16 20 -27q-23 -1 -48 3q-21 4 -47 14t-52 30q-73 59 -43 131zM325 4h-14
q31 26 50.5 84.5t19.5 132.5q0 75 -19.5 133t-50.5 84h14q45 0 87.5 -15t75 -43t52 -68t19.5 -91t-19.5 -91t-52 -68t-75 -43t-87.5 -15z" />
    <glyph glyph-name="six" unicode="6" horiz-adv-x="734" 
d="M261 3q-54 0 -101.5 29.5t-83 80t-56 118.5t-20.5 146q0 77 20.5 145t56 118.5t83 80t101.5 29.5h16q-18 -23 -33.5 -60t-26.5 -85.5t-17 -106.5t-6 -121t6 -121.5t17 -107t26.5 -86t33.5 -59.5h-16zM552 638q0 -19 -7.5 -36t-20 -29.5t-30 -20t-36.5 -7.5t-36 7.5
t-29.5 20t-20 29.5t-7.5 36t7.5 36.5t20 30t29.5 20t36 7.5q39 0 66.5 -27.5t27.5 -66.5zM359 432q45 0 86.5 -14.5t73.5 -42.5t51 -67.5t19 -90.5q0 -50 -19 -90t-51 -68t-73.5 -42.5t-86.5 -14.5h-13q30 26 49 84t19 131t-19 131t-49 84h13z" />
    <glyph glyph-name="nine" unicode="9" horiz-adv-x="746" 
d="M328 749q54 0 101.5 -29.5t83 -80t56 -118.5t20.5 -146q0 -77 -20.5 -145t-56 -118.5t-83 -80t-101.5 -29.5h-16q18 22 33 59.5t26 86t17 106.5t6 121q0 64 -6 122t-17 106.5t-26 85.5t-33 60h16zM37 103q0 19 7.5 36.5t20 30t29.5 20t36 7.5q39 0 66.5 -27.5t27.5 -66.5
q0 -20 -7.5 -37t-20 -29.5t-30 -20t-36.5 -7.5t-36 7.5t-29.5 20t-20 29.5t-7.5 37zM230 318q-45 0 -86.5 14.5t-73.5 42.5t-51 67.5t-19 90.5q0 50 19 90t51 67.5t73.5 42.5t86.5 15h13q-30 -26 -49 -83.5t-19 -131.5q0 -73 19 -131t49 -84h-13z" />
    <glyph glyph-name="seven" unicode="7" horiz-adv-x="763" 
d="M627 729h-181l-384 -729h180zM0 457v274h277q-53 -35 -104 -78q-44 -37 -91 -86.5t-82 -109.5z" />
    <glyph glyph-name="eight" unicode="8" horiz-adv-x="811" 
d="M499 415q38 0 69.5 -19.5t54.5 -50t36 -67.5t13 -71q0 -40 -16 -77.5t-48 -66t-80 -46t-113 -17.5h-38q48 23 79 79t31 128q0 73 -31 129t-79 79q37 21 60 66t23 102t-23 102t-60 65h34q49 0 89 -13t68 -36t43.5 -53.5t15.5 -64.5q0 -35 -10 -65.5t-28 -53.5t-44 -36
t-59 -13h15h-2zM170 415h15q-33 0 -59 13t-44 36t-27.5 53.5t-9.5 65.5q0 34 12 64.5t36.5 53.5t61.5 36t86 13h54q-37 -20 -60 -65t-23 -102t23 -102t60 -66q-48 -23 -79 -79t-31 -129q0 -72 31 -128t79 -79h-45q-65 0 -112.5 17.5t-78 46t-45 66t-14.5 77.5q0 34 12.5 71
t35.5 67.5t54.5 50t69.5 19.5h-2z" />
    <glyph glyph-name="zero" unicode="0" horiz-adv-x="744" 
d="M194 374q0 -64 6 -122.5t17 -107.5t26.5 -86.5t33.5 -59.5q-54 0 -104 29.5t-88.5 80.5t-61.5 119.5t-23 146.5t23 146t61.5 119t88.5 80.5t104 29.5q-18 -22 -33.5 -59.5t-26.5 -86.5t-17 -107t-6 -122zM433 374q0 64 -6 122t-17 107t-26.5 86.5t-33.5 59.5
q54 0 104 -29.5t88.5 -80.5t61.5 -119t23 -146t-23 -146.5t-61.5 -119.5t-88.5 -80.5t-104 -29.5q18 22 33.5 59.5t26.5 86.5t17 107.5t6 122.5z" />
    <glyph glyph-name="period" unicode="." horiz-adv-x="306" 
d="M211 107q0 -22 -8.5 -41.5t-22.5 -34t-33 -23t-41 -8.5t-41.5 8.5t-33.5 23t-22.5 34t-8.5 41.5q0 21 8.5 40.5t22.5 33.5t33.5 22.5t41.5 8.5t41 -8.5t33 -22.5t22.5 -33.5t8.5 -40.5z" />
    <glyph glyph-name="comma" unicode="," horiz-adv-x="320" 
d="M175 192q61 -59 10 -149q-17 -32 -39.5 -52.5t-42.5 -33.5q-24 -15 -47 -23q8 17 9 35q1 16 -6 36t-29 43q-15 15 -22.5 34t-7.5 38.5t7.5 38t22.5 33.5t34 23t38.5 8t38.5 -8t34 -23z" />
    <glyph glyph-name="quotedblleft" unicode="&#x201c;" horiz-adv-x="536" 
d="M30 497q-56 54 -9 137q16 29 36.5 47.5t38.5 30.5q21 13 43 22q-7 -15 -8 -32q-1 -15 5.5 -34t26.5 -39q13 -14 20 -31t7 -35t-7 -35.5t-20 -30.5q-28 -28 -66.5 -28t-66.5 28zM272 497q-56 54 -9 137q16 29 36.5 47.5t38.5 30.5q21 13 43 22q-7 -15 -8 -32
q-1 -15 5.5 -34t26.5 -39q13 -14 20 -31t7 -35t-7 -35.5t-20 -30.5q-28 -28 -66.5 -28t-66.5 28z" />
    <glyph glyph-name="quotedblright" unicode="&#x201d;" horiz-adv-x="596" 
d="M402 708q56 -54 9 -137q-16 -29 -36.5 -48.5t-38.5 -30.5q-21 -14 -43 -21q7 14 8 32q1 14 -5.5 33.5t-26.5 39.5q-14 13 -20.5 30.5t-6.5 35.5t6.5 35t20.5 31q28 28 66.5 28t66.5 -28zM160 708q56 -54 9 -137q-16 -29 -36.5 -48.5t-38.5 -30.5q-21 -14 -43 -21
q7 14 8 32q1 14 -5.5 33.5t-26.5 39.5q-14 13 -20.5 30.5t-6.5 35.5t6.5 35t20.5 31q28 28 66.5 28t66.5 -28z" />
    <glyph glyph-name="quotedbl" unicode="&#x22;" horiz-adv-x="544" 
d="M187 640q0 -20 -15 -46.5t-32 -50.5q-20 -28 -46 -57q-27 29 -47 57q-18 24 -32.5 50.5t-14.5 46.5q0 19 7.5 36t20 29.5t29.5 20t37 7.5q19 0 36 -7.5t29.5 -20t20 -29.5t7.5 -36zM421 640q0 -20 -15 -46.5t-32 -50.5q-20 -28 -46 -57q-27 29 -47 57q-18 24 -32.5 50.5
t-14.5 46.5q0 19 7.5 36t20 29.5t29.5 20t37 7.5q19 0 36 -7.5t29.5 -20t20 -29.5t7.5 -36z" />
    <glyph glyph-name="colon" unicode=":" horiz-adv-x="387" 
d="M187 96q0 -20 -7.5 -37t-20 -29.5t-29.5 -20t-36 -7.5q-39 0 -66.5 27.5t-27.5 66.5q0 19 7.5 36t20 29.5t29.5 20t37 7.5q19 0 36 -7.5t29.5 -20t20 -29.5t7.5 -36zM187 434q0 -20 -7.5 -37t-20 -29.5t-29.5 -20t-36 -7.5q-20 0 -37 7.5t-29.5 20t-20 29.5t-7.5 37
q0 19 7.5 36t20 29.5t29.5 20t37 7.5q19 0 36 -7.5t29.5 -20t20 -29.5t7.5 -36z" />
    <glyph glyph-name="semicolon" unicode=";" horiz-adv-x="374" 
d="M160 160q56 -54 9 -137q-16 -29 -36.5 -48.5t-38.5 -30.5q-21 -14 -43 -21q7 14 8 32q1 14 -5.5 33.5t-26.5 39.5q-14 13 -20.5 30.5t-6.5 35.5t6.5 35t20.5 31q28 28 66.5 28t66.5 -28zM187 434q0 -20 -7.5 -37t-20 -29.5t-29.5 -20t-36 -7.5q-20 0 -37 7.5t-29.5 20
t-20 29.5t-7.5 37q0 19 7.5 36t20 29.5t29.5 20t37 7.5q19 0 36 -7.5t29.5 -20t20 -29.5t7.5 -36z" />
    <glyph glyph-name="aacute" unicode="&#xe1;" horiz-adv-x="667" 
d="M450 768q27 -65 -39 -119q-23 -19 -46.5 -28t-43.5 -12q-23 -4 -44 -3q12 10 18 24q5 12 6.5 30t-8.5 42q-7 16 -6.5 33t6.5 32t17.5 27t27.5 19q33 14 65.5 0.5t46.5 -45.5zM60 371q-27 63 36 116q22 18 44.5 27.5t41.5 13.5q22 4 42 4q-11 -10 -17 -24q-5 -12 -6 -29.5
t10 -40.5q7 -15 7.5 -31.5t-5.5 -31.5t-17 -27t-27 -19q-15 -7 -31.5 -7t-31.5 5.5t-27 16.5t-19 27zM190 2h77q-41 14 -67 50t-26 82t26 82t67 50h-88q-51 0 -85.5 -13t-54.5 -32.5t-28.5 -42.5t-8.5 -44q0 -22 7.5 -45t27.5 -42.5t54.5 -32t87.5 -12.5h11zM389 524l-9 2
v-230v-296h183v282q0 44 -14 84t-38 72t-55.5 54.5t-66.5 31.5z" />
    <glyph glyph-name="acircumflex" unicode="&#xe2;" horiz-adv-x="667" 
d="M60 371q-27 63 36 116q22 18 44.5 27.5t41.5 13.5q22 4 42 4q-11 -10 -17 -24q-5 -12 -6 -29.5t10 -40.5q7 -15 7.5 -31.5t-5.5 -31.5t-17 -27t-27 -19q-15 -7 -31.5 -7t-31.5 5.5t-27 16.5t-19 27zM190 2h77q-41 14 -67 50t-26 82t26 82t67 50h-88q-51 0 -85.5 -13
t-54.5 -32.5t-28.5 -42.5t-8.5 -44q0 -22 7.5 -45t27.5 -42.5t54.5 -32t87.5 -12.5h11zM389 524l-9 2v-230v-296h183v282q0 44 -14 84t-38 72t-55.5 54.5t-66.5 31.5z" />
    <glyph glyph-name="quotesingle" unicode="'" horiz-adv-x="203" 
d="M136 702q51 -58 -2 -137q-18 -28 -40 -45t-41 -27q-22 -11 -44 -18q8 14 10 31q2 14 -3 33.5t-23 41.5q-12 15 -17.5 32.5t-4 35.5t9.5 34.5t23 29.5q15 12 32.5 17.5t35.5 4t35 -9.5t29 -23z" />
    <glyph glyph-name="parenleft" unicode="(" horiz-adv-x="362" 
d="M131 354q0 -77 11.5 -139.5t28 -111.5t35.5 -84.5t35 -59.5q-42 10 -84 42t-76 83.5t-55.5 119.5t-21.5 150t18.5 149.5t50.5 117.5t75 83t93 46q-16 -24 -35 -59.5t-35.5 -84.5t-28 -111.5t-11.5 -140.5z" />
    <glyph glyph-name="parenright" unicode=")" horiz-adv-x="414" 
d="M114 352q0 77 -11.5 140t-28 111.5t-35.5 84.5t-35 59q42 -9 84 -41.5t76 -83.5t55.5 -119.5t21.5 -150.5t-18.5 -149.5t-50.5 -117.5t-75.5 -83t-92.5 -46q16 24 35 60t35.5 84.5t28 111t11.5 140.5z" />
    <glyph glyph-name="ntilde" unicode="&#xf1;" horiz-adv-x="662" 
d="M314 768q39 -21 83.5 -22.5t78.5 15.5q-11 -18 -26 -36q-13 -16 -30.5 -34.5t-40.5 -34.5q-23 -17 -45.5 -23.5t-45 -6t-43.5 6.5t-39 16q-40 21 -84 22.5t-78 -15.5q13 21 29 40q14 17 31 35t37 31q19 12 41.5 18t45.5 6.5t45.5 -4t40.5 -14.5zM0 462q38 5 71.5 15.5
t59.5 21.5q29 12 54 27v-525h-185v461zM352 525q35 -9 66.5 -31.5t55.5 -54.5t38 -72t14 -84v-282h-183v296v230q2 -1 4.5 -1t4.5 -1z" />
    <glyph glyph-name="asciitilde" unicode="~" horiz-adv-x="833" 
d="M481 331q43 -23 92 -24.5t87 16.5q-12 -20 -28 -40q-14 -17 -34 -37.5t-45 -38.5t-50.5 -26t-50.5 -7.5t-48 7.5t-43 18q-44 23 -92.5 24.5t-86.5 -16.5q14 23 32 45q14 19 33.5 38.5t41.5 33.5q21 13 46.5 20t51 8t50 -4.5t44.5 -16.5z" />
    <glyph glyph-name="hyphen" unicode="-" horiz-adv-x="573" 
d="M300 336q43 -23 92 -24.5t87 16.5q-12 -20 -28 -40q-14 -17 -34 -37.5t-45 -38.5t-50.5 -26t-50.5 -7.5t-48 7.5t-43 18q-44 23 -92.5 24.5t-86.5 -16.5q14 23 32 45q14 19 33.5 38.5t41.5 33.5q21 13 46.5 20t51 8t50 -4.5t44.5 -16.5z" />
    <glyph glyph-name="question" unicode="?" horiz-adv-x="631" 
d="M12 548q-37 79 42 149q27 24 56 37t52 18q27 6 54 6q-14 -13 -21 -31q-6 -15 -6.5 -37t13.5 -51q9 -20 10 -41t-6 -40t-20.5 -35t-33.5 -25t-40.5 -10t-39.5 6t-35 20.5t-25 33.5zM324 259q26 12 53 32t51 44t44.5 52t33.5 57t17.5 62t5.5 61q1 33 -2 65
q-13 -23 -32 -46.5t-42 -45t-49.5 -40t-53.5 -31.5q-26 -12 -52.5 -29t-50.5 -40t-44.5 -52t-33.5 -64q-14 -35 -21.5 -66.5t-10.5 -55.5q-4 -28 -4 -52q13 24 34 45.5t47 40t54.5 34.5t55.5 29zM224 -87q0 -40 -28 -68t-68 -28q-20 0 -37 7.5t-30 20.5t-20.5 30.5
t-7.5 37.5t7.5 37.5t20.5 30.5t30 20.5t37 7.5q40 0 68 -28t28 -68z" />
    <glyph glyph-name="questiondown" unicode="&#xbf;" horiz-adv-x="631" 
d="M517 211q37 -79 -42 -149q-28 -25 -56.5 -37.5t-51.5 -17.5q-27 -6 -54 -6q14 13 21 31q6 15 6.5 37t-13.5 51q-9 20 -10 41t5.5 40t20.5 35t34 25q19 9 40 10t40 -6t35 -21t25 -33zM205 500q-26 -12 -53 -32t-51 -44t-44.5 -52t-33.5 -57t-17.5 -62t-5.5 -61
q-1 -33 2 -65q13 23 32 46.5t42 45t49.5 40t53.5 31.5q26 12 52.5 29t50.5 40t44 52t34 64t21.5 66.5t10.5 55.5q4 28 4 52q-13 -24 -34 -45.5t-47 -40t-54.5 -34.5t-55.5 -29zM305 846q0 40 28 68t68 28q19 0 36.5 -7.5t30.5 -20.5t20.5 -30.5t7.5 -37.5t-7.5 -37.5
t-20.5 -30.5t-30.5 -20.5t-36.5 -7.5q-40 0 -68 28t-28 68z" />
    <glyph glyph-name="exclam" unicode="!" horiz-adv-x="349" 
d="M204 -34q0 -21 -8 -39.5t-21.5 -32t-31.5 -21t-38 -7.5q-21 0 -39 7.5t-31.5 21t-21.5 32t-8 39.5q0 20 8 38t21.5 31.5t31.5 21t39 7.5q20 0 38 -7.5t31.5 -21t21.5 -31.5t8 -38zM210 636q0 -11 -4.5 -37.5t-12 -62.5l-17 -78l-19.5 -84l-52 -218l-52 218q-10 42 -19 84
l-16.5 78t-12 62.5t-4.5 37.5q0 22 8 41t22.5 33t33.5 22t40 8q22 0 41 -8t33 -22t22.5 -33t8.5 -41z" />
    <glyph glyph-name="percent" unicode="%" horiz-adv-x="928" 
d="M687 128q0 -27 -10 -50.5t-27.5 -41t-40.5 -27.5t-50 -10t-50.5 10t-41 27.5t-27.5 41t-10 50.5t10 50t27.5 40.5t41 27.5t50.5 10t50 -10t40.5 -27.5t27.5 -40.5t10 -50zM261 571q0 -27 -10 -50.5t-27.5 -41t-40.5 -27.5t-50 -10t-50.5 10t-41 27.5t-27.5 41t-10 50.5
t10 50t27.5 40.5t41 27.5t50.5 10t50 -10t40.5 -27.5t27.5 -40.5t10 -50zM183 3h-177l503 701h177z" />
    <glyph glyph-name="acute" unicode="&#xb4;" horiz-adv-x="833" 
d="M450 768q27 -65 -39 -119q-23 -19 -46.5 -28t-43.5 -12q-23 -4 -44 -3q12 10 18 24q5 12 6.5 30t-8.5 42q-7 16 -6.5 33t6.5 32t17.5 27t27.5 19q33 14 65.5 0.5t46.5 -45.5z" />
    <glyph glyph-name="oacute" unicode="&#xf3;" horiz-adv-x="773" 
d="M392 525q51 0 96.5 -20.5t79.5 -56t53.5 -83.5t19.5 -103q0 -54 -19.5 -101.5t-53.5 -83t-79.5 -56t-96.5 -20.5h-16q18 16 32.5 42t25 60t16.5 74.5t6 84.5t-6 85t-16.5 75t-25 60.5t-32.5 42.5h16zM249 1q-51 0 -96.5 20.5t-79.5 56t-53.5 83t-19.5 101.5
q0 55 19.5 103t53.5 83.5t79.5 56t96.5 20.5h16q-18 -16 -32.5 -42.5t-25 -60.5t-16.5 -75t-6 -85t6 -84.5t16.5 -74.5t25 -60t32.5 -42h-16zM465 768q27 -65 -39 -119q-23 -19 -46.5 -28t-43.5 -12q-23 -4 -44 -3q12 10 18 24q5 12 6.5 30t-8.5 42q-7 16 -6.5 33t6.5 32
t17.5 27t27.5 19q33 14 65.5 0.5t46.5 -45.5z" />
    <glyph glyph-name="eacute" unicode="&#xe9;" horiz-adv-x="664" 
d="M449 61q35 0 63 7q-41 -38 -95.5 -60.5t-117.5 -22.5q-62 0 -116.5 21.5t-95 59t-64 88t-23.5 107.5q0 55 20 103t54.5 84.5t81.5 59t100 25.5q-37 -42 -54 -94t-17 -117q0 -58 20.5 -106t56.5 -82.5t84 -53.5t103 -19zM398 249q3 16 5 32t2 33q0 67 -17 121.5t-54 97.5
q53 -3 100 -26.5t81.5 -61.5t54.5 -87.5t20 -106.5v-2h-192zM412 768q27 -65 -39 -119q-23 -19 -46.5 -28t-43.5 -12q-23 -4 -44 -3q12 10 18 24q5 12 6.5 30t-8.5 42q-7 16 -6.5 33t6.5 32t17.5 27t27.5 19q33 14 65.5 0.5t46.5 -45.5z" />
    <glyph glyph-name="uacute" unicode="&#xfa;" horiz-adv-x="671" 
d="M527 0h-178v527h178v-527zM174 20q-35 9 -66.5 31.5t-55.5 54.5t-38 72t-14 84v266h183v-280v-230q-3 0 -9 2zM415 768q27 -65 -39 -119q-23 -19 -46.5 -28t-43.5 -12q-23 -4 -44 -3q12 10 18 24q5 12 6.5 30t-8.5 42q-7 16 -6.5 33t6.5 32t17.5 27t27.5 19
q33 14 65.5 0.5t46.5 -45.5z" />
    <glyph glyph-name="iacute" unicode="&#xed;" horiz-adv-x="347" 
d="M-41 427q11 -7 21 -23q8 -14 14.5 -38t6.5 -62v-304h175v548q-28 -20 -62 -40q-29 -18 -69 -39.5t-86 -41.5zM166 768q27 -65 -39 -119q-23 -19 -46.5 -28t-43.5 -12q-23 -4 -44 -3q12 10 18 24q5 12 6.5 30t-8.5 42q-7 16 -6.5 33t6.5 32t17.5 27t27.5 19
q33 14 65.5 0.5t46.5 -45.5z" />
    <glyph glyph-name="Eacute" unicode="&#xc9;" horiz-adv-x="664" 
d="M343 389q30 -13 60 -32q25 -17 53 -43t48 -64v152v131q-18 -38 -45.5 -65.5t-53.5 -44.5q-30 -20 -62 -34zM421 749h207v-246q-23 47 -54 92q-26 38 -65 80t-88 74zM630 254v-255h-214q42 36 82 77q34 35 70.5 81t61.5 97zM247 1h-176v748h176v-748zM412 976
q27 -65 -39 -119q-23 -19 -46.5 -28t-43.5 -12q-23 -4 -44 -3q12 10 18 24q5 12 6.5 30t-8.5 42q-7 16 -6.5 33t6.5 32t17.5 27t27.5 19q33 14 65.5 0.5t46.5 -45.5z" />
    <glyph glyph-name="Aacute" unicode="&#xc1;" horiz-adv-x="916" 
d="M417 569l89 203l383 -772h-188zM252 198q-20 -37 -45 -72q-21 -30 -49.5 -64.5t-62.5 -61.5h167h166q-40 23 -72 56.5t-55 65.5q-27 37 -49 76zM536 982q27 -65 -39 -119q-23 -19 -46.5 -28t-43.5 -12q-23 -4 -44 -3q12 10 18 24q5 12 6.5 30t-8.5 42q-7 16 -6.5 33
t6.5 32t17.5 27t27.5 19q33 14 65.5 0.5t46.5 -45.5z" />
    <glyph glyph-name="Oacute" unicode="&#xd3;" horiz-adv-x="844" 
d="M473 753q58 0 114.5 -29.5t101.5 -81t72.5 -120t27.5 -146.5q0 -77 -29 -145.5t-75 -119.5t-103.5 -81t-115.5 -30q19 22 40 60t38 87t28 107t11 122t-10 122.5t-25.5 107.5t-35.5 86.5t-39 60.5zM315 0q-58 0 -114.5 29.5t-101 81t-72 120t-27.5 146.5q0 77 29 145.5
t75 119.5t103.5 81t115.5 30q-20 -23 -40.5 -60.5t-37.5 -86.5t-28 -107t-11 -122t9.5 -122.5t25.5 -107.5t35 -87t39 -60zM500 978q27 -65 -39 -119q-23 -19 -46.5 -28t-43.5 -12q-23 -4 -44 -3q12 10 18 24q5 12 6.5 30t-8.5 42q-7 16 -6.5 33t6.5 32t17.5 27t27.5 19
q33 14 65.5 0.5t46.5 -45.5z" />
    <glyph glyph-name="Iacute" unicode="&#xcd;" horiz-adv-x="345" 
d="M177 -3h-178v750h178v-750v0zM173 978q27 -65 -39 -119q-23 -19 -46.5 -28t-43.5 -12q-23 -4 -44 -3q12 10 18 24q5 12 6.5 30t-8.5 42q-7 16 -6.5 33t6.5 32t17.5 27t27.5 19q33 14 65.5 0.5t46.5 -45.5z" />
    <glyph glyph-name="Ntilde" unicode="&#xd1;" horiz-adv-x="988" 
d="M456 973q38 -20 81.5 -21.5t76.5 14.5q-11 -17 -25 -35q-12 -15 -29.5 -33t-40.5 -34q-45 -33 -89.5 -30t-79.5 23q-39 20 -82 21.5t-77 -14.5q13 20 28 39q13 17 30 34t37 30q19 12 41 18t44.5 6.5t44.5 -4t40 -14.5zM4 749h266l412 -461l3 -288zM105 242q18 -47 44 -91
q23 -38 56 -79.5t78 -71.5h-178h-102q33 26 53 67t31 80q12 46 18 95zM674 563q-10 30 -29 63q-17 28 -45 61t-73 63h157h79q-28 -31 -45 -64t-27 -60q-11 -33 -17 -63z" />
    <glyph glyph-name="tilde" unicode="&#x2dc;" horiz-adv-x="833" 
d="M317 752q43 -23 92 -24.5t87 16.5q-12 -20 -28 -40q-14 -17 -34 -37.5t-45 -38.5t-50.5 -26t-50.5 -7.5t-48 7.5t-43 18q-44 23 -92.5 24.5t-86.5 -16.5q14 23 32 45q14 19 33.5 38.5t41.5 33.5q21 13 46.5 20t51 8t50 -4.5t44.5 -16.5z" />
    <glyph glyph-name="A" unicode="A" horiz-adv-x="889" 
d="M321 569l89 203l383 -772h-188zM156 198q-20 -37 -45 -72q-21 -30 -49.5 -64.5t-62.5 -61.5h167h166q-40 23 -72 56.5t-55 65.5q-27 37 -49 76z" />
    <glyph glyph-name="B" unicode="B" horiz-adv-x="776" 
d="M476 414q37 0 68.5 -19.5t54 -50t35 -67t12.5 -70.5q0 -33 -10 -70t-34.5 -67.5t-66 -50.5t-105.5 -20h-83q24 12 44 32.5t34.5 47.5t22.5 59.5t8 68.5q0 73 -31 128.5t-78 78.5q37 22 59.5 66.5t22.5 101.5t-22.5 102t-59.5 65h61q48 0 84.5 -13t60.5 -35.5t36 -53
t12 -65.5t-9.5 -65.5t-27 -53t-43 -36t-57.5 -13.5h14h-2zM178 747v-745h-176v745h176z" />
    <glyph glyph-name="C" unicode="C" horiz-adv-x="773" 
d="M649 573q-8 -17 -21 -30t-29.5 -19.5t-35 -7t-35.5 7.5q-18 7 -30.5 20.5t-19 30t-7 34.5t7.5 35q11 26 9.5 45.5t-7.5 32.5q-7 15 -19 26q22 0 47 -4q21 -4 46 -13.5t51 -29.5q71 -58 43 -128zM631 258v-257h-198q39 28 76 66q32 32 65.5 80t56.5 111zM296 5
q-59 0 -112.5 29.5t-94 80t-65 118t-24.5 144.5t23.5 144.5t64 117.5t93 79t111.5 29h7q-20 -21 -36.5 -58t-28.5 -85.5t-18.5 -106t-6.5 -120.5t6.5 -120.5t18.5 -106t28.5 -86t36.5 -59.5h-3z" />
    <glyph glyph-name="Udieresis" unicode="&#xdc;" horiz-adv-x="821" 
d="M177 950q0 -37 -25.5 -62.5t-61.5 -25.5q-37 0 -62.5 25.5t-25.5 62.5q0 36 25.5 61.5t62.5 25.5q36 0 61.5 -25.5t25.5 -61.5zM606 950q0 -37 -25.5 -62.5t-61.5 -25.5q-37 0 -62.5 25.5t-25.5 62.5q0 36 25.5 61.5t62.5 25.5q36 0 61.5 -25.5t25.5 -61.5zM547 513
q8 46 22 89q12 37 32.5 77.5t52.5 69.5h-105h-166q45 -30 76 -70.5t51 -77.5q23 -43 37 -88zM184 252v495h-184v-481q0 -44 11 -85.5t32.5 -75.5t52.5 -58.5t72 -34.5q39 -10 80 -9t74 6q39 6 75 17q-60 11 -107 39q-20 12 -39 29t-34 39.5t-24 52t-9 66.5z" />
    <glyph glyph-name="udieresis" unicode="&#xfc;" horiz-adv-x="671" 
d="M177 723q0 -37 -25.5 -62.5t-61.5 -25.5q-37 0 -62.5 25.5t-25.5 62.5q0 36 25.5 61.5t62.5 25.5q36 0 61.5 -25.5t25.5 -61.5zM535 723q0 -37 -25.5 -62.5t-61.5 -25.5q-37 0 -62.5 25.5t-25.5 62.5q0 36 25.5 61.5t62.5 25.5q36 0 61.5 -25.5t25.5 -61.5zM527 527h-178
v-527h178v527zM174 20q6 -2 9 -2v230v280h-183v-266q0 -44 14 -84t38 -72t55.5 -54.5t66.5 -31.5z" />
    </font>
</defs>
</svg>
